<svg width="460" height="370" viewBox="0 0 460 370" fill="none" xmlns="http://www.w3.org/2000/svg">
<g clip-path="url(#clip0_3_217)">
<path d="M82.8812 243.793C82.4768 243.793 82.075 243.73 81.69 243.606C81.2029 243.452 80.7511 243.204 80.3609 242.874C79.9707 242.545 79.6498 242.141 79.4167 241.687L75.6587 234.405C75.1872 233.488 75.0987 232.423 75.4126 231.441C75.7266 230.46 76.4173 229.643 77.3333 229.17L138.084 197.876C139.001 197.405 140.067 197.317 141.05 197.63C142.032 197.944 142.849 198.634 143.323 199.549L147.081 206.832C147.552 207.748 147.641 208.814 147.327 209.795C147.013 210.776 146.322 211.593 145.406 212.066L84.656 243.36C84.1075 243.644 83.4989 243.793 82.8812 243.793Z" fill="#3B82F6"/>
<path d="M104.918 215.42C105.081 215.644 105.219 215.885 105.331 216.139L111.75 230.145C111.957 230.612 112.07 231.115 112.082 231.626C112.094 232.136 112.006 232.644 111.821 233.12C111.637 233.596 111.361 234.032 111.008 234.401C110.655 234.77 110.233 235.067 109.765 235.273L88.1741 242.813C85.9286 243.596 83.4734 243.529 81.2741 242.624C79.0747 241.719 77.284 240.04 76.2413 237.904C75.1499 235.669 74.9597 233.1 75.7098 230.729C76.4598 228.358 78.0929 226.365 80.2717 225.163L100.18 214.164C100.994 213.8 101.909 213.726 102.772 213.954C103.634 214.183 104.392 214.7 104.918 215.42Z" fill="#2F2E41"/>
<path d="M359.154 178.755H255.147C252.78 178.748 250.495 177.885 248.714 176.327L205.874 138.577C204.404 137.279 202.509 136.563 200.546 136.564H163.575V9.15979C163.578 6.7313 164.545 4.40307 166.264 2.68587C167.982 0.968671 170.312 0.00274468 172.743 0H349.987C352.417 0.00274321 354.748 0.968671 356.466 2.68587C358.185 4.40307 359.152 6.7313 359.154 9.15979L359.154 178.755Z" fill="#E6E6E6"/>
<path d="M206.08 59.1223C216.821 59.1223 225.527 50.4232 225.527 39.6924C225.527 28.9616 216.821 20.2626 206.08 20.2626C195.34 20.2626 186.634 28.9616 186.634 39.6924C186.634 50.4232 195.34 59.1223 206.08 59.1223Z" fill="white"/>
<path d="M281.645 29.2836H245.53C244.867 29.2836 244.231 29.5468 243.762 30.0153C243.293 30.4837 243.029 31.1192 243.029 31.7817C243.029 32.4442 243.293 33.0796 243.762 33.5481C244.231 34.0166 244.867 34.2798 245.53 34.2798H281.645C282.308 34.2798 282.944 34.0166 283.413 33.5481C283.882 33.0796 284.145 32.4442 284.145 31.7817C284.145 31.1192 283.882 30.4837 283.413 30.0153C282.944 29.5468 282.308 29.2836 281.645 29.2836Z" fill="white"/>
<path d="M334.074 45.105H245.052C243.935 45.105 243.029 46.2264 243.029 47.6031C243.029 48.9798 243.935 50.1012 245.052 50.1012H334.074C335.191 50.1012 336.096 48.9798 336.096 47.6031C336.096 46.2264 335.191 45.105 334.074 45.105Z" fill="white"/>
<path d="M327.078 78.5521H195.651C194.585 78.5521 193.718 79.6735 193.718 81.0502C193.718 82.427 194.585 83.5484 195.651 83.5484H327.078C328.145 83.5484 329.012 82.427 329.012 81.0502C329.012 79.6735 328.145 78.5521 327.078 78.5521Z" fill="white"/>
<path d="M327.078 94.0961H195.651C194.585 94.0961 193.718 95.2174 193.718 96.5942C193.718 97.9709 194.585 99.0923 195.651 99.0923H327.078C328.145 99.0923 329.012 97.9709 329.012 96.5942C329.012 95.2174 328.145 94.0961 327.078 94.0961Z" fill="white"/>
<path d="M327.078 109.64H195.651C194.585 109.64 193.718 110.761 193.718 112.138C193.718 113.515 194.585 114.636 195.651 114.636H327.078C328.145 114.636 329.012 113.515 329.012 112.138C329.012 110.761 328.145 109.64 327.078 109.64Z" fill="white"/>
<path d="M327.078 125.184H195.651C194.585 125.184 193.718 126.305 193.718 127.682C193.718 129.059 194.585 130.18 195.651 130.18H327.078C328.145 130.18 329.012 129.059 329.012 127.682C329.012 126.305 328.145 125.184 327.078 125.184Z" fill="white"/>
<path d="M445.276 178.755H255.147C253.255 178.758 251.403 178.205 249.822 177.165L249.697 177.083V47.4644C249.699 45.0359 250.666 42.7076 252.385 40.9904C254.104 39.2732 256.434 38.3073 258.865 38.3046H436.108C438.539 38.3073 440.869 39.2732 442.588 40.9904C444.306 42.7076 445.273 45.0359 445.276 47.4644L445.276 178.755Z" fill="#3B82F6"/>
<path d="M292.202 97.4269C302.942 97.4269 311.649 88.7278 311.649 77.997C311.649 67.2662 302.942 58.5671 292.202 58.5671C281.462 58.5671 272.755 67.2662 272.755 77.997C272.755 88.7278 281.462 97.4269 292.202 97.4269Z" fill="white"/>
<path d="M367.767 67.5881H331.651C330.988 67.5881 330.352 67.8513 329.883 68.3198C329.414 68.7883 329.151 69.4237 329.151 70.0863C329.151 70.7488 329.414 71.3842 329.883 71.8527C330.352 72.3212 330.988 72.5844 331.651 72.5844H367.767C368.43 72.5844 369.066 72.3212 369.535 71.8527C370.004 71.3842 370.267 70.7488 370.267 70.0863C370.267 69.4237 370.004 68.7883 369.535 68.3198C369.066 67.8513 368.43 67.5881 367.767 67.5881Z" fill="white"/>
<path d="M420.195 83.4095H331.173C330.056 83.4095 329.151 84.5309 329.151 85.9077C329.151 87.2844 330.056 88.4058 331.173 88.4058H420.195C421.312 88.4058 422.218 87.2844 422.218 85.9077C422.218 84.5309 421.312 83.4095 420.195 83.4095Z" fill="white"/>
<path d="M413.2 116.857H281.773C280.706 116.857 279.839 117.978 279.839 119.355C279.839 120.732 280.706 121.853 281.773 121.853H413.2C414.267 121.853 415.133 120.732 415.133 119.355C415.133 117.978 414.267 116.857 413.2 116.857Z" fill="white"/>
<path d="M413.2 132.401H281.773C280.706 132.401 279.839 133.522 279.839 134.899C279.839 136.276 280.706 137.397 281.773 137.397H413.2C414.267 137.397 415.133 136.276 415.133 134.899C415.133 133.522 414.267 132.401 413.2 132.401Z" fill="white"/>
<path d="M413.2 147.944H281.773C280.706 147.944 279.839 149.066 279.839 150.443C279.839 151.819 280.706 152.941 281.773 152.941H413.2C414.267 152.941 415.133 151.819 415.133 150.443C415.133 149.066 414.267 147.944 413.2 147.944Z" fill="white"/>
<path d="M413.2 163.488H281.773C280.706 163.488 279.839 164.61 279.839 165.987C279.839 167.363 280.706 168.485 281.773 168.485H413.2C414.267 168.485 415.133 167.363 415.133 165.987C415.133 164.61 414.267 163.488 413.2 163.488Z" fill="white"/>
<path d="M450.554 177.367H255.147C253.269 177.369 251.446 176.735 249.975 175.568C249.858 175.479 249.747 175.385 249.636 175.285L233.095 160.713L206.792 137.536C205.068 136.015 202.847 135.175 200.546 135.176H152.741C150.237 135.18 147.836 136.175 146.066 137.944C144.295 139.713 143.299 142.112 143.295 144.614V360.563C143.299 363.064 144.295 365.463 146.066 367.232C147.836 369.001 150.237 369.996 152.741 370H450.554C453.059 369.996 455.459 369.001 457.23 367.232C459 365.463 459.996 363.064 460 360.563V186.804C459.996 184.302 459 181.904 457.23 180.135C455.459 178.366 453.059 177.37 450.554 177.367ZM458.889 360.563C458.886 362.77 458.007 364.887 456.445 366.448C454.882 368.009 452.764 368.887 450.554 368.89H152.741C150.531 368.887 148.413 368.009 146.85 366.448C145.288 364.887 144.409 362.77 144.406 360.563V144.614C144.409 142.406 145.288 140.29 146.85 138.728C148.413 137.167 150.531 136.289 152.741 136.287H200.546C202.576 136.285 204.537 137.025 206.058 138.368L231.417 160.713L248.897 176.118C250.627 177.632 252.847 178.47 255.147 178.477H450.554C452.764 178.48 454.882 179.358 456.445 180.919C458.007 182.48 458.886 184.597 458.889 186.804V360.563Z" fill="#3F3D56"/>
<path d="M57.3701 210.726C73.7931 210.726 87.1066 197.424 87.1066 181.015C87.1066 164.607 73.7931 151.305 57.3701 151.305C40.9471 151.305 27.6337 164.607 27.6337 181.015C27.6337 197.424 40.9471 210.726 57.3701 210.726Z" fill="#3B82F6"/>
<path d="M57.1297 369.677H48.929C47.8979 369.676 46.9093 369.266 46.1801 368.537C45.451 367.809 45.0408 366.821 45.0397 365.791V297.501C45.0408 296.471 45.451 295.483 46.1801 294.755C46.9093 294.026 47.8979 293.616 48.929 293.615H57.1297C58.1608 293.616 59.1494 294.026 59.8786 294.755C60.6077 295.483 61.0179 296.471 61.019 297.501V365.791C61.0179 366.821 60.6077 367.809 59.8786 368.537C59.1494 369.266 58.1608 369.676 57.1297 369.677Z" fill="#3B82F6"/>
<path d="M74.9096 369.677H66.709C65.6778 369.676 64.6892 369.266 63.9601 368.537C63.2309 367.809 62.8208 366.821 62.8196 365.791V297.501C62.8208 296.471 63.2309 295.483 63.9601 294.755C64.6892 294.026 65.6778 293.616 66.709 293.615H74.9096C75.9408 293.616 76.9294 294.026 77.6585 294.755C78.3876 295.483 78.7978 296.471 78.7989 297.501V365.791C78.7978 366.821 78.3876 367.809 77.6585 368.537C76.9294 369.266 75.9408 369.676 74.9096 369.677Z" fill="#3B82F6"/>
<path d="M104.689 282.382C104.689 306.603 81.8854 314.416 57.6433 314.416C33.4012 314.416 16.9005 306.603 16.9005 282.382C16.9005 258.161 33.2189 216.875 57.4609 216.875C81.703 216.875 104.689 258.161 104.689 282.382Z" fill="#2F2E41"/>
<path d="M56.7454 192.027L56.7144 190.917C58.7818 190.859 60.6044 190.73 61.9739 189.73C62.3621 189.43 62.6813 189.051 62.9096 188.617C63.1379 188.183 63.27 187.705 63.297 187.216C63.321 186.917 63.2758 186.617 63.1647 186.338C63.0536 186.059 62.8797 185.81 62.6565 185.609C61.7473 184.842 60.2845 185.09 59.2183 185.579L58.2988 186L60.062 173.126L61.1629 173.277L59.6632 184.228C61.1119 183.802 62.4543 183.986 63.3738 184.761C63.7268 185.069 64.0038 185.455 64.1831 185.887C64.3624 186.32 64.4392 186.788 64.4074 187.255C64.375 187.913 64.199 188.555 63.8919 189.138C63.5847 189.72 63.1538 190.228 62.6293 190.627C60.8697 191.911 58.5829 191.975 56.7454 192.027Z" fill="#2F2E41"/>
<path d="M72.5926 174.221H66.6077V175.332H72.5926V174.221Z" fill="#2F2E41"/>
<path d="M53.7014 174.221H47.7165V175.332H53.7014V174.221Z" fill="#2F2E41"/>
<path d="M387.769 331.695H224.416C222.206 331.693 220.088 330.815 218.526 329.254C216.963 327.693 216.084 325.576 216.082 323.368V233.436C216.084 231.228 216.963 229.112 218.526 227.55C220.088 225.989 222.206 225.111 224.416 225.109H387.769C389.979 225.111 392.097 225.989 393.66 227.55C395.222 229.112 396.101 231.228 396.103 233.436V323.368C396.101 325.576 395.222 327.693 393.66 329.254C392.097 330.815 389.979 331.693 387.769 331.695ZM224.416 226.219C222.501 226.221 220.665 226.982 219.311 228.335C217.957 229.688 217.195 231.523 217.193 233.436V323.368C217.195 325.282 217.957 327.116 219.311 328.469C220.665 329.822 222.501 330.583 224.416 330.585H387.769C389.684 330.583 391.52 329.822 392.874 328.469C394.228 327.116 394.99 325.282 394.992 323.368V233.436C394.99 231.523 394.228 229.688 392.874 228.335C391.52 226.982 389.684 226.221 387.769 226.219H224.416Z" fill="#E6E6E6"/>
<path d="M250.808 277.847C261.548 277.847 270.255 269.148 270.255 258.417C270.255 247.686 261.548 238.987 250.808 238.987C240.068 238.987 231.361 247.686 231.361 258.417C231.361 269.148 240.068 277.847 250.808 277.847Z" fill="#E6E6E6"/>
<path d="M326.373 248.008H290.257C289.594 248.008 288.958 248.271 288.489 248.74C288.02 249.208 287.757 249.844 287.757 250.506C287.757 251.169 288.02 251.804 288.489 252.273C288.958 252.741 289.594 253.005 290.257 253.005H326.373C327.036 253.005 327.672 252.741 328.141 252.273C328.61 251.804 328.873 251.169 328.873 250.506C328.873 249.844 328.61 249.208 328.141 248.74C327.672 248.271 327.036 248.008 326.373 248.008Z" fill="#E6E6E6"/>
<path d="M378.801 263.83H289.78C288.663 263.83 287.757 264.951 287.757 266.328C287.757 267.705 288.663 268.826 289.78 268.826H378.801C379.918 268.826 380.824 267.705 380.824 266.328C380.824 264.951 379.918 263.83 378.801 263.83Z" fill="#E6E6E6"/>
<path d="M371.806 297.277H240.379C239.312 297.277 238.445 298.398 238.445 299.775C238.445 301.152 239.312 302.273 240.379 302.273H371.806C372.873 302.273 373.74 301.152 373.74 299.775C373.74 298.398 372.873 297.277 371.806 297.277Z" fill="#E6E6E6"/>
<path d="M371.806 312.821H240.379C239.312 312.821 238.445 313.942 238.445 315.319C238.445 316.696 239.312 317.817 240.379 317.817H371.806C372.873 317.817 373.74 316.696 373.74 315.319C373.74 313.942 372.873 312.821 371.806 312.821Z" fill="#E6E6E6"/>
<path d="M33.6379 172.852C35.9506 169.374 40.02 167.899 44.0328 167.541C48.5495 167.137 52.9138 168.007 57.3237 168.853C62.177 169.783 67.3135 170.654 72.2038 169.477C74.3671 168.977 76.3887 167.993 78.1159 166.599C79.8432 165.205 81.2311 163.437 82.1751 161.429C83.9656 157.511 84.3514 153.097 83.2676 148.928C82.1217 144.495 79.2772 140.594 75.8289 137.647C68.791 131.634 59.267 128.931 50.1064 129.185C40.9806 129.421 32.1602 132.519 24.8953 138.042C17.6181 143.765 12.4973 151.783 10.3685 160.787C8.14256 169.718 8.8677 179.129 12.4357 187.614C14.4402 192.26 17.3394 196.449 19.5765 200.978C21.6594 205.195 23.2635 210.098 21.9675 214.801C20.8303 218.929 17.4916 222.595 13.3001 223.716C9.30785 224.783 5.36598 223.034 3.1785 219.587C1.08319 216.286 1.03305 211.963 4.17906 209.297C4.97226 208.614 5.89624 208.099 6.89481 207.784C7.89339 207.469 8.94569 207.36 9.98774 207.464C11.0298 207.568 12.0398 207.882 12.9563 208.388C13.8729 208.895 14.6768 209.582 15.3193 210.408C16.5956 212.064 17.1669 214.156 16.9093 216.231C16.7543 217.279 18.3602 217.732 18.5166 216.674C18.8921 214.48 18.4758 212.224 17.3419 210.308C16.2081 208.392 14.4303 206.941 12.3254 206.213C10.2204 205.484 7.92506 205.526 5.84821 206.331C3.77137 207.136 2.04796 208.651 0.98503 210.607C-0.912172 214.171 0.111476 218.47 2.5198 221.516C3.76237 223.139 5.44654 224.37 7.37082 225.061C9.29509 225.753 11.378 225.875 13.3703 225.415C17.7541 224.403 21.3403 220.922 23.0268 216.831C24.9043 212.277 24.0441 207.195 22.2138 202.776C20.2352 197.998 17.2971 193.714 14.9737 189.11C12.8698 184.95 11.5311 180.446 11.0212 175.813C10.0006 166.51 12.114 157.131 17.0271 149.163C22.0348 141.317 29.6783 135.513 38.5844 132.793C47.3662 130.039 57.0517 130.123 65.6502 133.508C74.12 136.842 82.2986 144.109 82.2003 153.868C82.1584 158.037 80.6095 162.288 77.4135 165.069C73.5941 168.392 68.276 168.676 63.4747 168.157C58.6429 167.635 53.9508 166.226 49.0982 165.866C44.8774 165.553 40.3239 165.878 36.5553 167.973C34.8002 168.951 33.3061 170.336 32.1986 172.011C31.6034 172.907 33.0464 173.742 33.6379 172.852Z" fill="#2F2E41"/>
<path d="M25.0715 312.103C24.8748 312.103 24.6784 312.088 24.484 312.058L16.3768 310.825C15.3576 310.669 14.442 310.115 13.8308 309.286C13.2197 308.456 12.963 307.418 13.117 306.399L23.4019 238.887C23.5582 237.869 24.1124 236.954 24.9429 236.343C25.7735 235.732 26.8125 235.476 27.8321 235.63L35.9394 236.863C36.9586 237.019 37.8743 237.573 38.4854 238.402C39.0966 239.232 39.3533 240.27 39.1992 241.289L28.9143 308.801C28.7732 309.719 28.3083 310.556 27.6036 311.162C26.899 311.767 26.0008 312.101 25.0715 312.103Z" fill="#3B82F6"/>
<path d="M34.7598 266.092C34.4826 266.092 34.2061 266.062 33.9352 266.004L18.8195 262.965C18.3197 262.858 17.846 262.654 17.4254 262.364C17.0048 262.073 16.6456 261.703 16.3682 261.275C16.0908 260.846 15.9007 260.366 15.8089 259.864C15.717 259.362 15.7251 258.846 15.8328 258.347L22.4111 236.461C23.0961 234.185 24.5929 232.24 26.6178 230.993C28.6427 229.746 31.055 229.285 33.3974 229.697C35.8489 230.128 38.041 231.483 39.5209 233.483C41.0007 235.482 41.6552 237.974 41.3491 240.441L38.5603 262.999C38.3771 263.872 37.8996 264.655 37.2079 265.218C36.5161 265.781 35.652 266.089 34.7598 266.092Z" fill="#2F2E41"/>
<path d="M106.6 370H19.3671C19.2198 370 19.0784 369.941 18.9742 369.837C18.87 369.733 18.8115 369.592 18.8115 369.445C18.8115 369.298 18.87 369.156 18.9742 369.052C19.0784 368.948 19.2198 368.89 19.3671 368.89H106.6C106.747 368.89 106.889 368.948 106.993 369.052C107.097 369.156 107.156 369.298 107.156 369.445C107.156 369.592 107.097 369.733 106.993 369.837C106.889 369.941 106.747 370 106.6 370Z" fill="#3F3D56"/>
</g>
<defs>
<clipPath id="clip0_3_217">
<rect width="460" height="370" fill="white"/>
</clipPath>
</defs>
</svg>
