<svg width="519" height="387" viewBox="0 0 519 387" fill="none" xmlns="http://www.w3.org/2000/svg">
<g clip-path="url(#clip0_3_397)">
<path d="M515.8 24.0427H184.935C184.208 24.0266 183.632 23.4249 183.648 22.6987C183.663 21.9951 184.231 21.4284 184.935 21.4128H515.8C516.526 21.4289 517.103 22.0306 517.087 22.7568C517.071 23.4604 516.504 24.0271 515.8 24.0427Z" fill="#E6E6E6"/>
<path d="M243.203 159.166H376.691C377.03 159.166 377.305 159.441 377.305 159.78V237.348C377.305 237.687 377.03 237.962 376.691 237.962H243.203V159.166Z" fill="#E6E6E6"/>
<path d="M376.534 238.381L243.027 159.761L243.379 158.571L376.886 237.191C377.215 237.288 377.402 237.633 377.305 237.962C377.208 238.29 376.863 238.478 376.534 238.381Z" fill="white"/>
<path d="M243.379 238.557L243.027 237.367L376.534 158.747C376.863 158.649 377.208 158.837 377.305 159.166C377.402 159.494 377.215 159.839 376.886 159.936L243.379 238.557Z" fill="white"/>
<path d="M361.53 81.5692H258.828C257.223 81.5692 255.921 82.8697 255.921 84.4739V84.4739C255.921 86.0782 257.223 87.3787 258.828 87.3787H361.53C363.135 87.3787 364.437 86.0782 364.437 84.4739C364.437 82.8697 363.135 81.5692 361.53 81.5692Z" fill="#E6E6E6"/>
<path d="M375.337 99.7028H245.022C243.416 99.7028 242.115 101.003 242.115 102.607V102.607C242.115 104.212 243.416 105.512 245.022 105.512H375.337C376.942 105.512 378.243 104.212 378.243 102.607C378.243 101.003 376.942 99.7028 375.337 99.7028Z" fill="#E6E6E6"/>
<path d="M375.337 117.836H245.022C243.416 117.836 242.115 119.137 242.115 120.741C242.115 122.345 243.416 123.646 245.022 123.646H375.337C376.942 123.646 378.243 122.345 378.243 120.741C378.243 119.137 376.942 117.836 375.337 117.836Z" fill="#3B82F6"/>
<path d="M498.911 179.051C498.901 201.476 484.72 221.449 463.544 228.865C463.094 229.026 462.644 229.173 462.19 229.315C434.415 238.188 404.701 222.88 395.821 195.123C386.942 167.366 402.26 137.671 430.035 128.798C457.81 119.924 487.524 135.232 496.403 162.989C498.064 168.182 498.91 173.6 498.911 179.051Z" fill="#E6E6E6"/>
<path d="M375.313 124.811C375.101 127.257 376.912 129.412 379.359 129.624C379.62 129.647 379.883 129.646 380.144 129.623L386.645 144.02L391.035 137.083L384.188 124.474C383.804 122.036 381.515 120.37 379.075 120.754C377.034 121.075 375.479 122.752 375.313 124.811Z" fill="#FFB6B6"/>
<path d="M439.386 179.032C439.291 178.606 439.17 178.187 439.024 177.776C438.092 175.13 436.194 172.933 433.711 171.626C433.652 171.592 433.588 171.558 433.53 171.528L403.828 156.467L401.194 151.333L390.547 130.605L387.936 131.382L381.767 133.214L381.626 133.253L391.852 167.645L394.198 169.442L420.776 189.755L421.641 190.419C426.056 193.787 432.273 193.422 436.262 189.559C436.66 189.178 437.028 188.767 437.362 188.328C439.389 185.686 440.131 182.277 439.386 179.032Z" fill="#3B82F6"/>
<path d="M455.899 216.804L455.742 211.137L455.292 194.703C456.92 184.186 458.074 183.018 450.223 175.827C449.617 175.697 449.093 175.318 448.781 174.782C448.068 173.326 449.783 170.854 448.302 167.049L436.614 167.718L433.711 171.626L422.028 187.356C421.57 188.134 421.152 188.934 420.776 189.755C415.775 200.61 422.555 206.379 423.083 207.371L426.319 217.556L428.104 227.434L428.681 228.807L430.308 229.403C440.693 232.644 451.824 232.613 462.19 229.315C460.445 224.976 458.341 220.792 455.899 216.804Z" fill="#3B82F6"/>
<path d="M478.536 256.753C479.536 254.511 478.528 251.883 476.284 250.884C476.045 250.777 475.796 250.692 475.542 250.629L474.101 234.899L467.685 240.024L470.037 254.176C469.604 256.606 471.223 258.927 473.655 259.36C475.689 259.723 477.707 258.645 478.536 256.753Z" fill="#FFB6B6"/>
<path d="M456.182 179.623C454.487 177.06 451.81 175.309 448.781 174.782C448.133 174.665 447.475 174.606 446.816 174.606C444.62 174.606 442.472 175.254 440.642 176.467C440.062 176.85 439.52 177.289 439.024 177.776C434.582 182.076 434.468 189.161 438.771 193.6L438.775 193.604L455.742 211.137L461.926 217.527L463.544 228.865L466.032 246.31L468.75 246.427L475.183 246.711L475.33 246.716L476.4 222.27L476.899 210.873L456.182 179.623Z" fill="#3B82F6"/>
<path d="M432.996 140.234C428.863 148.373 431.563 157.801 439.231 162.759C447.523 168.12 458.288 166.946 461.771 156.528C465.648 144.926 462.463 139.949 455.535 134.003C447.417 127.034 437.46 131.439 432.996 140.234Z" fill="#2F2E41"/>
<path d="M453.337 158.366C448.954 164.107 440.744 165.21 435 160.83C429.262 156.456 428.152 148.266 432.519 142.524L432.632 142.375C437.142 136.733 445.375 135.814 451.02 140.321C456.537 144.726 457.561 152.711 453.334 158.363L453.337 158.366Z" fill="#FFB6B6"/>
<path d="M428.991 138.916C431.117 140.938 433.709 142.405 436.537 143.189C437.104 142.534 437.776 141.977 438.526 141.542C438.167 142.288 437.921 143.083 437.796 143.902C439.058 146.518 444.21 148.398 449.134 150.322L455.655 138.819L447.023 133.931C440.087 129.138 431.921 131.184 428.991 138.916Z" fill="#2F2E41"/>
<path d="M460.575 134.017C461.854 133.546 463.285 133.755 464.376 134.572C465.427 135.37 466.277 136.403 466.857 137.588C467.913 139.505 468.672 141.571 469.107 143.716C469.48 145.571 469.417 147.814 467.751 148.782C466.361 149.59 464.374 149.081 463.096 148.003C461.912 146.872 461.014 145.476 460.476 143.93C459.853 142.45 459.263 140.916 458.155 139.687L459.306 140.224C458.943 139.121 458.773 137.962 458.805 136.801C458.859 135.625 459.532 134.565 460.575 134.017Z" fill="#2F2E41"/>
<path d="M445.644 135.525L454.905 140.769C460.12 143.722 461.952 150.34 458.998 155.552C454.714 163.105 445.386 166.164 437.458 162.616L445.921 155.15L434.44 160.996L431.989 159.608C444.301 157.371 446.677 147.719 445.644 135.525Z" fill="#2F2E41"/>
<path d="M463.139 144.742C464.698 146.555 467.138 147.26 469.34 148.204C477.228 151.662 482.899 158.789 484.494 167.248C485.102 170.642 485.023 174.155 485.984 177.463C486.94 180.772 489.306 184.018 492.702 184.592C495 184.984 497.304 184.098 499.466 183.222C500.655 182.745 501.844 182.265 503.032 181.784C501.792 178.674 500.554 175.565 499.318 172.455C501.305 175.39 503.616 178.092 506.207 180.511C510.467 178.794 514.732 177.077 519 175.36C508.499 175.4 510.291 165.213 507.942 154.992C506.65 149.375 495.655 145.572 493.499 140.228C490.131 131.85 480.606 127.787 472.222 131.152C468.61 132.602 465.633 135.292 463.828 138.739C461.672 139.597 461.609 142.951 463.139 144.742Z" fill="#2F2E41"/>
<path d="M158.102 243.144C156.134 240.655 156.559 237.042 159.05 235.076C159.292 234.886 159.548 234.715 159.816 234.565L156.818 206.091L164.495 203.326L167.809 237.171C169.141 240.046 167.89 243.456 165.013 244.787C162.606 245.901 159.749 245.222 158.102 243.144Z" fill="#FFB6B6"/>
<path d="M153.996 138.75C153.996 138.75 166.459 144.827 166.499 151.971C166.54 159.115 167.572 165.577 166.597 168.341C165.622 171.105 169.075 191.197 167.459 193.187C165.842 195.177 169.173 196.195 167.422 199.6C165.672 203.005 164.897 203.646 165.539 204.421C166.18 205.195 167.122 219.957 167.122 219.957L156.853 221.24L145.928 173.596L153.996 138.75Z" fill="#3F3D56"/>
<path d="M94.7293 246.037C97.065 243.888 97.2156 240.254 95.0656 237.92C94.8573 237.694 94.6312 237.485 94.3895 237.295L101.843 209.65L94.6986 205.709L86.0858 238.609C84.3165 241.237 85.0147 244.802 87.6451 246.57C89.8461 248.049 92.7749 247.829 94.7293 246.037Z" fill="#FFB6B6"/>
<path d="M115.254 143.595C115.254 143.595 101.988 147.633 100.821 154.681C99.6543 161.729 97.6154 167.947 98.1424 170.83C98.6693 173.714 92.0888 193.01 93.3714 195.23C94.6539 197.45 91.2042 197.93 92.3952 201.569C93.5863 205.207 94.2505 205.962 93.4949 206.626C92.7393 207.29 89.48 221.718 89.48 221.718L99.4185 224.603L117.723 179.276L115.254 143.595Z" fill="#3F3D56"/>
<path d="M166.198 369.721L175.046 369.721L179.256 335.614L166.197 335.615L166.198 369.721Z" fill="#FFB6B6"/>
<path d="M177.991 370.517V364.522L175.665 364.664L166.196 365.225L164.004 365.36L162.329 385.436L162.239 386.512H168.522L168.724 385.444L169.636 380.585L171.992 385.444L172.508 386.512H189.165C191.228 386.499 192.896 384.829 192.905 382.768C193.608 379.486 179.756 372.393 177.991 370.517Z" fill="#2F2E41"/>
<path d="M62.5378 360.096L70.2337 364.459L90.7369 336.871L79.379 330.432L62.5378 360.096Z" fill="#FFB6B6"/>
<path d="M72.4051 366.6L75.3595 361.391L73.2802 360.367L64.7613 356.188L62.7867 355.217L53.086 369.411L50.8048 372.744L53.3852 374.209L56.2648 375.846L60.1689 371.242L59.7351 377.812L73.34 385.533H73.3475L74.2226 386.027C76.0218 387.042 78.3042 386.41 79.3235 384.614C81.5524 382.103 73.011 369.112 72.4051 366.6Z" fill="#2F2E41"/>
<path d="M122.288 202.3C102.678 203.004 95.7858 282.908 101.774 284.357L73.8276 336.406L113.606 354.226L139.761 263.469L144.12 296.868L138.308 349.869L164.02 356.083L181.804 354.814C177.183 291.637 165.645 225.004 156.083 199.229L122.288 202.3Z" fill="#2F2E41"/>
<path d="M113.286 207.902L113.157 208.387C125.691 215.357 134.251 213.866 147.953 209.647L157.956 207.546C160.139 204.701 158.36 201.918 155.941 199.208L161.937 149.918C161.897 143.532 156.684 138.388 150.294 138.428C150.032 138.43 149.769 138.441 149.507 138.46L140.5 131.792L127.676 132.234L119.099 141.702L113.974 143.532L109.993 144.95C109.188 145.675 108.309 146.51 107.467 147.431L113.765 184.888L116.444 196.088C112.853 200.18 110.874 204.174 113.286 207.902Z" fill="#3F3D56"/>
<path d="M40.5371 380.326C31.2061 379.216 22.875 373.956 17.8646 366.011C14.6475 360.797 12.9875 354.605 11.3821 348.617C10.9146 346.875 10.4316 345.073 9.92009 343.336C8.73681 339.452 10.0367 335.24 13.2032 332.696C16.2644 330.132 20.5787 329.687 24.0993 331.573L24.475 331.772L25.1332 346.557C26.1086 344.576 28.2489 340.102 29.9446 335.634L30.0868 335.259L30.4118 335.494C33.8209 337.942 36.9081 340.808 39.6005 344.027C49.2226 355.717 53.2121 371.045 50.5092 385.939L50.4273 386.377L40.5371 380.326Z" fill="#F2F2F2"/>
<path d="M3.29808e-06 386.269C-0.00119486 386.672 0.324219 386.999 0.726838 387H518.269C518.673 387 519 386.673 519 386.269C519 385.866 518.673 385.539 518.269 385.539H0.731194C0.328557 385.537 0.00120146 385.863 9.44249e-06 386.265L3.29808e-06 386.269Z" fill="#CCCCCC"/>
<path d="M152.325 123.383L152.338 123.38C153.734 123.01 154.567 121.58 154.197 120.184L150.472 106.079C149.807 103.552 148.64 101.184 147.041 99.1157C143.913 95.0819 139.349 92.4098 134.299 91.6562C131.692 91.2703 129.034 91.4157 126.486 92.0838C116.059 94.8169 113.146 98.2633 112.558 115.9C111.969 133.538 116.289 130.027 116.289 130.027C116.378 130.367 116.535 130.685 116.751 130.963C117.172 131.505 117.786 131.864 118.466 131.964C118.814 132.015 119.17 131.995 119.51 131.907C132.532 130.567 145.719 129.347 152.327 123.383L152.325 123.383Z" fill="#2F2E41"/>
<path d="M121.71 108.492C119.799 116.201 124.503 123.998 132.216 125.908C135.913 126.823 139.822 126.236 143.087 124.276C146.351 122.33 148.699 119.16 149.609 115.472C151.513 107.762 146.803 99.9688 139.088 98.0654C135.4 97.1556 131.502 97.7399 128.244 99.6909C124.976 101.634 122.623 104.803 121.71 108.492Z" fill="#FFB6B6"/>
<path d="M155.251 106.046C154.725 104.047 153.802 102.175 152.538 100.539C150.741 96.0627 147.922 92.4448 142.462 94.6413C140.414 94.3388 138.325 94.4511 136.322 94.9715L133.493 95.7025C133.461 95.7107 133.429 95.719 133.398 95.7274C125.173 97.9025 120.269 106.329 122.446 114.549L122.521 114.831L128.503 113.279L129.038 107.053L130.951 112.645L134.041 111.845L134.31 108.703L135.276 111.523C141.135 113.798 147.925 111.541 155.323 106.33L155.251 106.046Z" fill="#2F2E41"/>
<path d="M141.526 125.756C141.74 126.188 141.829 126.67 141.782 127.149C141.76 127.394 141.703 127.635 141.614 127.864C141.537 128.059 141.438 128.245 141.318 128.417C140.962 128.925 140.436 129.29 139.835 129.445C139.797 129.455 139.759 129.464 139.722 129.472C139.684 129.48 139.646 129.487 139.607 129.494C139.569 129.5 139.53 129.506 139.491 129.511C139.452 129.515 139.413 129.519 139.374 129.523L137.151 129.697L132.582 124.23L134.091 129.943L123.99 130.752L117.586 106.508L133.773 102.321L133.496 102.891C132.58 104.797 132.209 106.919 132.422 109.023C132.649 111.151 133.239 113.224 134.166 115.153C135.089 117.109 136.198 118.972 137.477 120.716C138.601 122.264 139.814 123.745 141.108 125.153C141.275 125.334 141.416 125.537 141.526 125.756Z" fill="#2F2E41"/>
<path d="M221.665 10.6169C224.535 10.6169 226.861 8.24023 226.861 5.30845C226.861 2.37667 224.535 0 221.665 0C218.795 0 216.469 2.37667 216.469 5.30845C216.469 8.24023 218.795 10.6169 221.665 10.6169Z" fill="#3F3D56"/>
<path d="M239.615 10.6169C242.485 10.6169 244.811 8.24023 244.811 5.30845C244.811 2.37667 242.485 0 239.615 0C236.745 0 234.419 2.37667 234.419 5.30845C234.419 8.24023 236.745 10.6169 239.615 10.6169Z" fill="#3F3D56"/>
<path d="M257.565 10.6169C260.435 10.6169 262.761 8.24023 262.761 5.30845C262.761 2.37667 260.435 0 257.565 0C254.695 0 252.369 2.37667 252.369 5.30845C252.369 8.24023 254.695 10.6169 257.565 10.6169Z" fill="#3F3D56"/>
<path d="M278.033 9.50409C277.873 9.50409 277.714 9.44232 277.594 9.3194L274.088 5.73768C273.854 5.49902 273.854 5.11763 274.088 4.87897L277.594 1.29755C277.832 1.05529 278.221 1.05139 278.463 1.28796C278.705 1.52512 278.709 1.91399 278.472 2.15625L275.386 5.30832L278.472 8.4607C278.709 8.70295 278.705 9.09183 278.463 9.32899C278.343 9.44592 278.188 9.50409 278.033 9.50409Z" fill="#3F3D56"/>
<path d="M283.924 9.50405C283.769 9.50405 283.614 9.44588 283.495 9.32895C283.252 9.09179 283.248 8.70322 283.485 8.46066L286.571 5.30829L283.485 2.15621C283.248 1.91396 283.252 1.52508 283.495 1.28792C283.737 1.05046 284.126 1.05496 284.364 1.29751L287.869 4.87893C288.103 5.11759 288.103 5.49898 287.869 5.73764L284.364 9.31936C284.243 9.44229 284.084 9.50405 283.924 9.50405Z" fill="#3F3D56"/>
<path d="M467.341 0.614624H460.822C460.078 0.614624 459.476 1.21637 459.476 1.95938V8.48052C459.476 9.22353 460.078 9.82528 460.822 9.82528H467.341C468.085 9.82528 468.693 9.22353 468.693 8.48052V1.95938C468.693 1.21637 468.085 0.614624 467.341 0.614624Z" fill="#3F3D56"/>
<path d="M451.366 0.614624H444.846C444.103 0.614624 443.501 1.21637 443.501 1.95938V8.48052C443.501 9.22353 444.103 9.82528 444.846 9.82528H451.366C452.109 9.82528 452.717 9.22353 452.717 8.48052V1.95938C452.717 1.21637 452.109 0.614624 451.366 0.614624Z" fill="#3F3D56"/>
<path d="M482.395 0.921631H475.876C475.132 0.921631 474.53 1.52338 474.53 2.26639V8.78753C474.53 9.53053 475.132 10.1323 475.876 10.1323H482.395C483.138 10.1323 483.747 9.53053 483.747 8.78753V2.26639C483.747 1.52338 483.138 0.921631 482.395 0.921631Z" fill="#3F3D56"/>
<path d="M384.132 3.40234H332.022C331.112 3.40234 330.381 4.1392 330.381 5.04187C330.381 5.94453 331.112 6.68135 332.022 6.68135H384.132C385.036 6.68135 385.773 5.94449 385.773 5.04187C385.773 4.13924 385.036 3.40234 384.132 3.40234Z" fill="#3F3D56"/>
</g>
<defs>
<clipPath id="clip0_3_397">
<rect width="519" height="387" fill="white"/>
</clipPath>
</defs>
</svg>
