<svg width="517" height="369" viewBox="0 0 517 369" fill="none" xmlns="http://www.w3.org/2000/svg">
<g clip-path="url(#clip0_6_4)">
<path d="M472.078 331.948C476.612 339.971 472.767 367.07 472.767 367.07C472.767 367.07 447.588 356.4 443.055 348.38C440.883 344.528 440.327 339.97 441.511 335.708C442.694 331.446 445.52 327.829 449.366 325.651C453.213 323.473 457.765 322.913 462.024 324.094C466.283 325.275 469.899 328.1 472.078 331.948Z" fill="#F1F1F1"/>
<path d="M473.132 367.035L472.598 367.147C467.446 342.645 449.454 326.03 449.273 325.865L449.641 325.46C449.823 325.626 467.943 342.355 473.132 367.035Z" fill="white"/>
<path d="M513.278 341.084C507.125 352.257 472.435 367.393 472.435 367.393C472.435 367.393 466.715 329.947 472.865 318.778C475.82 313.413 480.783 309.444 486.662 307.742C492.54 306.04 498.854 306.746 504.213 309.704C509.572 312.662 513.538 317.63 515.238 323.514C516.937 329.399 516.232 335.719 513.278 341.084Z" fill="#F1F1F1"/>
<path d="M472.741 367.798L472.22 367.249C497.322 343.385 503.821 310.101 503.883 309.768L504.627 309.908C504.564 310.244 498.026 343.761 472.741 367.798Z" fill="white"/>
<path d="M121.548 256.48C117.578 256.466 113.625 255.955 109.783 254.956L109.025 254.746L108.323 254.394C82.9219 241.646 61.4925 224.806 44.6299 204.344C30.6711 187.307 19.7882 167.962 12.4706 147.181C3.71983 122.3 -0.490135 96.0475 0.0416527 69.6754C0.0523832 69.1218 0.0614645 68.6944 0.0614645 68.4C0.0614645 55.5803 7.17007 44.332 18.1715 39.7433C26.5914 36.2314 103.04 4.79876 108.564 2.52766C118.966 -2.68998 130.064 1.66496 131.84 2.42652C135.823 4.05685 206.495 32.9922 221.768 40.2719C237.507 47.7746 241.707 61.2529 241.707 68.034C241.707 98.7344 236.395 127.426 225.919 153.313C217.459 174.266 205.469 193.61 190.47 210.502C161.531 243.102 132.585 254.658 132.305 254.76C128.846 255.952 125.206 256.534 121.548 256.48ZM114.741 239.601C117.25 240.164 123.028 241.009 126.794 239.633C131.578 237.887 155.806 225.311 178.446 199.807C209.726 164.569 225.598 120.273 225.621 68.1473C225.565 67.0912 224.816 59.5593 214.852 54.8098C199.876 47.6709 126.418 17.6034 125.678 17.3004L125.475 17.2142C123.936 16.5685 119.036 15.2083 115.659 16.9798L114.983 17.2954C114.164 17.632 33.013 50.9967 24.3582 54.6065C18.3039 57.1317 16.1468 63.3875 16.1468 68.4C16.1468 68.7663 16.1373 69.2991 16.1239 69.9878C15.4322 105.654 23.6771 193.417 114.741 239.601Z" fill="#3F3D56"/>
<path d="M111.927 9.84805C111.927 9.84805 30.0386 43.5154 21.2648 47.1749C12.491 50.8344 8.10407 59.6171 8.10407 68.4C8.10407 77.1828 1.52373 191.786 111.927 247.197C111.927 247.197 121.948 249.972 129.55 247.197C137.152 244.422 233.664 197.58 233.664 68.034C233.664 68.034 233.664 54.8598 218.31 47.5408C202.956 40.2218 128.721 9.84805 128.721 9.84805C128.721 9.84805 119.605 5.8226 111.927 9.84805Z" fill="#3B82F6"/>
<path opacity="0.1" d="M120.701 36.1964V215.8C120.701 215.8 38.0812 175.989 38.8124 71.3276L120.701 36.1964Z" fill="black"/>
<path d="M121.779 165.28L95.46 131.405L110.765 119.489L123.227 135.528L165.325 91.0419L179.403 104.393L121.779 165.28Z" fill="white"/>
<path d="M516.369 369H275.88C275.713 369 275.552 368.933 275.434 368.815C275.316 368.696 275.249 368.536 275.249 368.368C275.249 368.201 275.316 368.04 275.434 367.921C275.552 367.803 275.713 367.736 275.88 367.736H516.369C516.536 367.736 516.697 367.803 516.815 367.921C516.934 368.04 517 368.201 517 368.368C517 368.536 516.934 368.696 516.815 368.815C516.697 368.933 516.536 369 516.369 369Z" fill="#CACACA"/>
<path d="M345.398 359.04L355.16 359.039L359.804 321.348L345.396 321.348L345.398 359.04Z" fill="#FFB8B8"/>
<path d="M342.908 355.85L362.133 355.849H362.134C365.383 355.849 368.499 357.141 370.797 359.441C373.094 361.741 374.385 364.86 374.385 368.113V368.511L342.908 368.513L342.908 355.85Z" fill="#2F2E41"/>
<path d="M378.221 359.04L387.982 359.039L392.627 321.348L378.219 321.348L378.221 359.04Z" fill="#FFB8B8"/>
<path d="M375.73 355.85L394.955 355.849H394.956C398.205 355.849 401.322 357.141 403.619 359.441C405.917 361.741 407.208 364.86 407.208 368.113V368.511L375.731 368.513L375.73 355.85Z" fill="#2F2E41"/>
<path d="M360.742 226.676L363.083 346.253L344.14 345.078L330.999 268.913L326.848 216.982L360.742 226.676Z" fill="#2F2E41"/>
<path d="M393.251 206.596L395.906 348.149L373.814 347.517L369.042 263.374L360.741 232.908L326.848 216.982L332.382 178.9L382.184 178.208L393.251 206.596Z" fill="#2F2E41"/>
<path d="M355.163 79.8861C364.519 79.8861 372.103 72.2938 372.103 62.9283C372.103 53.5628 364.519 45.9706 355.163 45.9706C345.807 45.9706 338.222 53.5628 338.222 62.9283C338.222 72.2938 345.807 79.8861 355.163 79.8861Z" fill="#FFB8B8"/>
<path d="M369.214 87.0297L371.808 90.9648L378.726 110.352L373.192 185.824L340.682 186.517L336.532 99.9655L345.226 89.0876L369.214 87.0297Z" fill="#CCCCCC"/>
<path d="M323.39 102.043L317.856 101.351C317.856 101.351 316.473 102.043 315.781 106.89C315.089 111.737 306.789 154.666 306.789 154.666L317.856 207.289L330.307 190.671L322.698 161.59L330.307 132.509L323.39 102.043Z" fill="#2F2E41"/>
<path d="M393.943 101.351H398.093L408.469 157.435L398.785 201.057L389.101 185.132L391.867 167.822L390.484 152.589L385.643 143.587L393.943 101.351Z" fill="#2F2E41"/>
<path d="M365.173 62.9283L362.093 62.1575C362.093 62.1575 359.783 49.0538 354.393 50.5954C349.003 52.137 335.142 53.6787 335.142 47.5122C335.142 41.3457 348.233 35.9501 355.933 36.7209C363.633 37.4917 373.467 40.0489 375.953 51.3662C379.938 69.5085 367.731 74.091 367.731 74.091L367.934 73.4304C368.498 71.5963 368.539 69.6409 368.051 67.785C367.563 65.9291 366.566 64.2469 365.173 62.9283Z" fill="#2F2E41"/>
<path d="M318.548 101.351L340.682 92.3493L345.87 88.5411L361.433 157.435L368.696 86.4639L397.401 101.351L387.718 148.434L386.334 166.437L390.484 180.977C390.484 180.977 405.01 191.363 400.168 202.442C395.326 213.52 389.793 214.213 389.793 214.213C389.793 214.213 366.275 192.056 364.892 186.516C363.508 180.977 361.433 171.284 361.433 171.284C361.433 171.284 349.674 215.598 335.84 214.905C322.006 214.213 322.006 199.672 322.006 199.672L325.465 184.439L330.999 168.514L328.232 142.202L318.548 101.351Z" fill="#2F2E41"/>
</g>
<defs>
<clipPath id="clip0_6_4">
<rect width="517" height="369" fill="white"/>
</clipPath>
</defs>
</svg>
